<svg width="836" height="646" viewBox="0 0 836 646" fill="none" xmlns="http://www.w3.org/2000/svg">
<g id="undraw_Website_builder_re_ii6e (3) 1">
<g id="rest">
<path id="Path 1" d="M607.42 95.9805L84.3367 0.144507C83.2718 -0.0602207 82.1764 -0.0472926 81.1167 0.182509C80.1555 0.393029 79.253 0.814515 78.4747 1.4165C77.7138 2.00995 77.1017 2.77242 76.6867 3.64351C76.2452 4.58431 76.0206 5.61229 76.0297 6.6515V475.274C76.02 476.314 76.2438 477.342 76.6847 478.284C77.099 479.155 77.7105 479.918 78.4707 480.511C79.2486 481.114 80.1506 481.536 81.1117 481.747C82.1713 481.978 83.2666 481.992 84.3317 481.787L607.42 385.951C607.853 385.861 608.255 385.658 608.583 385.36C608.966 385.018 609.286 384.612 609.53 384.16C609.813 383.645 610.027 383.095 610.167 382.523C610.322 381.902 610.4 381.264 610.401 380.624V101.324C610.401 100.681 610.323 100.042 610.168 99.4185C610.028 98.847 609.814 98.2963 609.531 97.7805C609.287 97.3287 608.966 96.9227 608.584 96.5805C608.256 96.2832 607.854 96.0791 607.421 95.9895L607.42 95.9805Z" fill="#E4E4E4"/>
<path id="Path 1_2" d="M615.42 95.9805L92.3367 0.144507C91.2718 -0.0602207 90.1764 -0.0472926 89.1167 0.182509C88.1555 0.393029 87.253 0.814515 86.4747 1.4165C85.7138 2.00995 85.1017 2.77242 84.6867 3.64351C84.2452 4.58431 84.0206 5.61229 84.0297 6.6515V475.274C84.02 476.314 84.2438 477.342 84.6847 478.284C85.099 479.155 85.7105 479.918 86.4707 480.511C87.2486 481.114 88.1506 481.536 89.1117 481.747C90.1713 481.978 91.2666 481.992 92.3317 481.787L615.42 385.951C615.853 385.861 616.255 385.658 616.583 385.36C616.966 385.018 617.286 384.612 617.53 384.16C617.813 383.645 618.027 383.095 618.167 382.523C618.322 381.902 618.4 381.264 618.401 380.624V101.324C618.401 100.681 618.323 100.042 618.168 99.4185C618.028 98.847 617.814 98.2963 617.531 97.7805C617.287 97.3287 616.966 96.9227 616.584 96.5805C616.256 96.2832 615.854 96.0791 615.421 95.9895L615.42 95.9805Z" fill="white"/>
<path id="Path 2" d="M615.42 95.9805L92.3367 0.144507C91.2718 -0.0602207 90.1764 -0.0472926 89.1167 0.182509C88.1555 0.393029 87.253 0.814515 86.4747 1.4165C85.7138 2.00995 85.1017 2.77242 84.6867 3.64351C84.2452 4.58431 84.0206 5.61229 84.0297 6.6515V475.274C84.02 476.314 84.2438 477.342 84.6847 478.284C85.099 479.155 85.7105 479.918 86.4707 480.511C87.2486 481.114 88.1506 481.536 89.1117 481.747C90.1713 481.978 91.2666 481.992 92.3317 481.787L615.42 385.951C615.853 385.861 616.255 385.658 616.583 385.36C616.966 385.018 617.286 384.612 617.53 384.16C617.813 383.645 618.027 383.095 618.167 382.523C618.322 381.902 618.4 381.264 618.401 380.624V101.324C618.401 100.681 618.323 100.042 618.168 99.4185C618.028 98.847 617.814 98.2963 617.531 97.7805C617.287 97.3287 616.966 96.9227 616.584 96.5805C616.256 96.2832 615.854 96.0791 615.421 95.9895L615.42 95.9805ZM617.41 380.792C617.41 381.221 617.357 381.648 617.254 382.064C617.16 382.446 617.018 382.813 616.829 383.158C616.666 383.459 616.452 383.73 616.197 383.957C615.978 384.155 615.71 384.29 615.422 384.349L92.3417 479.122C91.632 479.257 90.9023 479.247 90.1967 479.092C89.5572 478.951 88.9571 478.669 88.4397 478.268C87.934 477.872 87.5273 477.364 87.2517 476.784C86.9588 476.158 86.8099 475.474 86.8157 474.784V7.1495C86.8096 6.45873 86.9583 5.77536 87.2507 5.1495C87.5257 4.56882 87.9321 4.06009 88.4377 3.66351C88.9547 3.26158 89.5544 2.97946 90.1937 2.83751C90.8992 2.68246 91.6289 2.6719 92.3387 2.8065L615.422 97.5825C615.71 97.6415 615.978 97.7769 616.197 97.9745C616.452 98.2025 616.666 98.4732 616.829 98.7745C617.018 99.1183 617.161 99.4855 617.255 99.8665C617.358 100.283 617.411 100.71 617.411 101.139V380.792L617.41 380.792Z" fill="#CACACA"/>
<path id="Path 3" d="M0.00067737 146.269C-0.0244861 143.072 0.651732 139.908 1.98168 137.001C3.22464 134.315 5.06153 131.946 7.35367 130.075C9.66097 128.203 12.3547 126.867 15.2407 126.162C18.363 125.408 21.6076 125.311 24.7697 125.875C28.0862 126.452 31.2686 127.633 34.1587 129.36C37.0139 131.058 39.5697 133.216 41.7237 135.745C43.8595 138.239 45.5661 141.07 46.7737 144.124C47.9771 147.153 48.6019 150.382 48.6157 153.641C48.6381 156.724 48.0105 159.777 46.7737 162.602C45.6121 165.226 43.8881 167.563 41.7237 169.447C39.5298 171.346 36.948 172.742 34.1587 173.54C31.1071 174.401 27.9097 174.618 24.7697 174.178V174.178C21.4248 173.717 18.1951 172.637 15.2457 170.994C12.2824 169.349 9.61711 167.218 7.36167 164.689C5.09668 162.164 3.27955 159.272 1.98867 156.136C0.694304 153.006 0.0191816 149.655 0.00067737 146.269V146.269Z" fill="#E4E4E4"/>
<path id="Path 3_2" d="M0.00067737 243.269C-0.0244861 240.071 0.651732 236.908 1.98168 234C3.22464 231.315 5.06153 228.946 7.35367 227.075C9.66097 225.203 12.3547 223.867 15.2407 223.162C18.363 222.408 21.6076 222.311 24.7697 222.874C28.0862 223.452 31.2686 224.633 34.1587 226.36C37.0139 228.058 39.5697 230.216 41.7237 232.745C43.8595 235.239 45.5661 238.07 46.7737 241.124C47.9771 244.153 48.6019 247.382 48.6157 250.641C48.6381 253.724 48.0105 256.777 46.7737 259.602C45.6121 262.226 43.8881 264.563 41.7237 266.447C39.5298 268.346 36.948 269.742 34.1587 270.54C31.1071 271.401 27.9097 271.618 24.7697 271.178V271.178C21.4248 270.717 18.1951 269.637 15.2457 267.994C12.2824 266.349 9.61711 264.218 7.36167 261.689C5.09668 259.164 3.27955 256.272 1.98867 253.136C0.694304 250.006 0.0191816 246.655 0.00067737 243.269Z" fill="#E4E4E4"/>
<path id="Path 3_3" d="M0.00067737 340.269C-0.0244861 337.072 0.651732 333.908 1.98168 331.001C3.22464 328.315 5.06153 325.946 7.35367 324.075C9.66097 322.203 12.3547 320.867 15.2407 320.162C18.363 319.408 21.6076 319.311 24.7697 319.875C28.0862 320.452 31.2686 321.633 34.1587 323.36C37.0139 325.058 39.5697 327.216 41.7237 329.746C43.8595 332.239 45.5661 335.07 46.7737 338.124C47.9771 341.153 48.6019 344.382 48.6157 347.642C48.6381 350.724 48.0105 353.777 46.7737 356.602C45.6121 359.226 43.8881 361.563 41.7237 363.448C39.5298 365.346 36.948 366.742 34.1587 367.54C31.1071 368.401 27.9097 368.618 24.7697 368.178V368.178C21.4248 367.717 18.1951 366.637 15.2457 364.994C12.2824 363.349 9.61711 361.218 7.36167 358.689C5.09668 356.164 3.27955 353.272 1.98867 350.136C0.694304 347.006 0.0191816 343.655 0.00067737 340.269Z" fill="#E4E4E4"/>
<path id="Path 3_4" d="M6.00068 146.269C5.97551 143.072 6.65173 139.908 7.98168 137.001C9.22464 134.315 11.0615 131.946 13.3537 130.075C15.661 128.203 18.3547 126.867 21.2407 126.162C24.363 125.408 27.6076 125.311 30.7697 125.875C34.0862 126.452 37.2686 127.633 40.1587 129.36C43.0139 131.058 45.5697 133.216 47.7237 135.745C49.8595 138.239 51.5661 141.07 52.7737 144.124C53.9771 147.153 54.6019 150.382 54.6157 153.641C54.6381 156.724 54.0105 159.777 52.7737 162.602C51.6121 165.226 49.8881 167.563 47.7237 169.447C45.5298 171.346 42.948 172.742 40.1587 173.54C37.1071 174.401 33.9097 174.618 30.7697 174.178V174.178C27.4248 173.717 24.1951 172.637 21.2457 170.994C18.2824 169.349 15.6171 167.218 13.3617 164.689C11.0967 162.164 9.27955 159.272 7.98867 156.136C6.6943 153.006 6.01918 149.655 6.00068 146.269V146.269Z" fill="#F9A826"/>
<path id="Path 4" d="M6.00068 242.607C5.98537 239.363 6.66067 236.153 7.98168 233.189C9.23614 230.398 11.0669 227.903 13.3537 225.869C15.641 223.837 18.3273 222.305 21.2407 221.369C24.3158 220.391 27.559 220.053 30.7697 220.378C34.0491 220.7 37.2363 221.647 40.1587 223.169C43.0045 224.65 45.5657 226.623 47.7237 228.996C49.867 231.343 51.5769 234.052 52.7737 236.996C53.9859 239.98 54.611 243.169 54.6147 246.39C54.6285 249.517 54.0016 252.614 52.7727 255.489C51.5944 258.226 49.8667 260.692 47.6968 262.733C45.5269 264.775 42.9609 266.35 40.1577 267.36C37.1517 268.439 33.9564 268.892 30.7687 268.69V268.69C27.4635 268.487 24.2292 267.645 21.2447 266.21C15.2865 263.346 10.5748 258.41 7.98968 252.325C6.68682 249.251 6.01062 245.947 6.00068 242.607V242.607Z" fill="#F9A826"/>
<path id="Path 5" d="M6.00069 338.947C5.99659 335.719 6.64594 332.524 7.90964 329.554C9.17334 326.584 11.0252 323.901 13.3537 321.666C16.217 318.924 19.7047 316.921 23.5155 315.829C27.3263 314.738 31.3456 314.59 35.2262 315.4C39.1067 316.209 42.7318 317.952 45.7882 320.476C48.8446 323 51.2404 326.231 52.7687 329.889C54.2709 333.529 54.8586 337.481 54.4805 341.401C54.1023 345.32 52.7698 349.088 50.5994 352.373C48.4291 355.659 45.4869 358.363 42.0301 360.249C38.5734 362.135 34.7072 363.146 30.7697 363.193C25.9492 363.263 21.2152 361.908 17.1624 359.297C13.1095 356.686 9.91838 352.936 7.98969 348.518C6.67789 345.497 6.00088 342.239 6.00069 338.947V338.947Z" fill="#F9A826"/>
<path id="Path 6" d="M21.1097 146.158L28.3717 147.275V140.115C28.3682 139.805 28.4316 139.498 28.5577 139.214C28.6756 138.953 28.8509 138.721 29.0707 138.537C29.2926 138.351 29.5529 138.218 29.8327 138.145C30.1375 138.068 30.4553 138.054 30.7657 138.106C31.0945 138.159 31.4108 138.272 31.6987 138.44C31.9857 138.606 32.2431 138.819 32.4607 139.07C32.6778 139.318 32.8519 139.601 32.9757 139.907C33.0991 140.21 33.164 140.534 33.1667 140.862V148.012L40.2907 149.105C40.6143 149.156 40.9256 149.267 41.2087 149.432C41.7762 149.761 42.2176 150.271 42.4627 150.88C42.5835 151.181 42.6463 151.502 42.6477 151.826C42.65 152.133 42.5869 152.437 42.4627 152.718C42.3478 152.976 42.1771 153.207 41.9627 153.392C41.745 153.576 41.4893 153.711 41.2137 153.786C40.9144 153.865 40.6017 153.882 40.2957 153.834L33.1617 152.767V159.901C33.164 160.21 33.0999 160.517 32.9737 160.801C32.8555 161.063 32.6807 161.296 32.4617 161.484C32.2405 161.671 31.9811 161.807 31.7017 161.884C31.3981 161.966 31.0807 161.984 30.7697 161.938C30.4412 161.89 30.1245 161.781 29.8357 161.618C29.5484 161.455 29.2905 161.245 29.0727 160.998C28.8551 160.751 28.681 160.47 28.5577 160.166C28.4351 159.861 28.3719 159.536 28.3717 159.209V152.049L21.1097 150.959C20.776 150.907 20.4547 150.795 20.1617 150.628C19.8701 150.462 19.6082 150.248 19.3867 149.997C19.1665 149.749 18.9897 149.465 18.8637 149.158C18.7381 148.852 18.6729 148.523 18.6717 148.192C18.6693 147.879 18.7348 147.569 18.8637 147.285C18.9846 147.02 19.1633 146.786 19.3867 146.601C19.6125 146.412 19.8771 146.275 20.1617 146.201C20.4714 146.121 20.7941 146.107 21.1097 146.158V146.158Z" fill="white"/>
<path id="Path 7" d="M26.2067 250.932L46.3727 252.394H46.4467L36.9897 235.224C36.931 235.117 36.8469 235.025 36.7447 234.956C36.6945 234.923 36.6405 234.896 36.5837 234.875C36.5266 234.855 36.4671 234.842 36.4067 234.836C36.3479 234.831 36.2887 234.834 36.2307 234.844C36.1748 234.855 36.1206 234.873 36.0697 234.898C35.9678 234.949 35.8827 235.028 35.8247 235.125L29.3897 245.703L29.0797 246.212L26.2067 250.932Z" fill="white"/>
<path id="Path 8" d="M14.6977 250.098L32.4897 251.387L29.0797 246.211L28.8337 245.838L24.3617 239.049C24.2825 238.943 24.1837 238.854 24.0707 238.787C24.0158 238.754 23.9578 238.726 23.8977 238.705C23.8355 238.682 23.7711 238.667 23.7057 238.658C23.6424 238.649 23.5784 238.646 23.5147 238.65C23.4527 238.655 23.3914 238.665 23.3317 238.683C23.2729 238.7 23.2163 238.723 23.1627 238.753C23.1088 238.782 23.0585 238.818 23.0127 238.858L22.9977 238.877L22.9787 238.895L22.9637 238.913L22.9487 238.933L14.6977 250.098Z" fill="white"/>
<path id="Ellipse 1" d="M28.1527 232.398C28.5629 232.434 28.9624 232.548 29.3297 232.734C29.6897 232.918 30.0144 233.163 30.2887 233.459C30.5624 233.754 30.7812 234.096 30.9347 234.467C31.0903 234.844 31.1708 235.246 31.1717 235.653C31.1735 236.048 31.0927 236.438 30.9347 236.799C30.7846 237.141 30.5645 237.448 30.2887 237.699C30.0114 237.951 29.6848 238.143 29.3297 238.262C28.951 238.389 28.5504 238.436 28.1527 238.401C27.742 238.367 27.3417 238.254 26.9737 238.068C26.6119 237.886 26.2855 237.641 26.0097 237.344C25.734 237.049 25.5135 236.707 25.3587 236.334C25.2016 235.957 25.1204 235.552 25.1197 235.142C25.118 234.747 25.1994 234.355 25.3587 233.992C25.5102 233.65 25.732 233.344 26.0097 233.092C26.2889 232.842 26.6172 232.652 26.9737 232.534C27.3532 232.409 27.7545 232.363 28.1527 232.398V232.398Z" fill="white"/>
<path id="Path 9" d="M443.424 108.621L249.324 81.9545C248.426 81.8263 247.511 81.9043 246.649 82.1825C245.827 82.4533 245.078 82.9059 244.456 83.5065C243.812 84.1279 243.306 84.8774 242.971 85.7065C242.603 86.6213 242.418 87.5988 242.424 88.5845V297.525C242.421 298.524 242.606 299.514 242.971 300.445C243.309 301.31 243.813 302.1 244.455 302.773C245.073 303.42 245.82 303.931 246.648 304.273C247.495 304.619 248.409 304.772 249.323 304.721L443.424 294.031C444.079 293.988 444.713 293.781 445.269 293.43C445.857 293.059 446.366 292.577 446.769 292.01C447.213 291.389 447.554 290.701 447.779 289.973C448.025 289.181 448.151 288.356 448.15 287.527V115.507C448.149 114.667 448.024 113.832 447.779 113.03C447.551 112.276 447.21 111.561 446.769 110.91C446.366 110.308 445.857 109.785 445.269 109.365C444.721 108.974 444.089 108.719 443.424 108.621V108.621ZM249.324 302.571C248.671 302.606 248.019 302.495 247.415 302.247C246.824 302.001 246.292 301.636 245.851 301.173C245.393 300.691 245.034 300.125 244.793 299.507C244.533 298.843 244.401 298.136 244.403 297.424V88.8435C244.399 88.1411 244.531 87.4445 244.793 86.7925C245.031 86.1996 245.392 85.6634 245.851 85.2185C246.294 84.7901 246.829 84.4671 247.415 84.2735C248.03 84.0736 248.683 84.0164 249.324 84.1065L443.424 110.412C443.899 110.482 444.351 110.664 444.743 110.944C445.164 111.243 445.528 111.615 445.817 112.044C446.133 112.509 446.376 113.02 446.54 113.559C446.715 114.132 446.805 114.729 446.806 115.33V287.597C446.806 288.19 446.716 288.78 446.54 289.347C446.379 289.868 446.135 290.359 445.817 290.803C445.528 291.207 445.164 291.552 444.743 291.817C444.345 292.065 443.892 292.211 443.424 292.24L249.324 302.571Z" fill="#E6E6E6"/>
<g id="b12ed9b2-cc32-4c4f-a9d5-2d1deb4d0e3e">
<path id="Path 14" d="M242.894 326.785C242.378 326.842 241.886 327.033 241.467 327.34C241.004 327.679 240.611 328.103 240.309 328.591C239.965 329.134 239.704 329.727 239.537 330.349C239.351 331.027 239.261 331.727 239.27 332.431C239.274 333.104 239.375 333.773 239.57 334.418C239.739 334.984 240.003 335.518 240.35 335.997C240.652 336.419 241.044 336.768 241.497 337.021C241.925 337.255 242.41 337.364 242.897 337.336L582.701 309.199C582.971 309.176 583.225 309.059 583.419 308.869C583.666 308.633 583.866 308.352 584.009 308.041C584.19 307.659 584.324 307.256 584.409 306.841C584.51 306.362 584.562 305.874 584.565 305.384C584.57 304.899 584.526 304.414 584.433 303.938C584.355 303.534 584.226 303.141 584.049 302.769C583.914 302.473 583.718 302.207 583.475 301.991C583.278 301.816 583.023 301.722 582.761 301.726H582.701L242.894 326.785Z" fill="#E6E6E6"/>
</g>
<g id="e10bb4bc-6df1-41b6-ac46-84090840b498">
<path id="Path 15" d="M242.894 358.806C242.375 358.877 241.883 359.081 241.467 359.399C241.005 359.749 240.612 360.182 240.309 360.677C239.965 361.228 239.705 361.828 239.537 362.456C239.351 363.138 239.261 363.843 239.27 364.551C239.273 365.221 239.374 365.888 239.57 366.53C239.738 367.09 240.002 367.617 240.35 368.089C240.651 368.501 241.043 368.84 241.495 369.08C241.926 369.303 242.411 369.399 242.895 369.357L582.701 331.871C582.973 331.84 583.226 331.716 583.419 331.522C583.666 331.278 583.866 330.992 584.009 330.677C584.19 330.288 584.324 329.88 584.409 329.461C584.509 328.979 584.562 328.489 584.565 327.998C584.571 327.514 584.526 327.03 584.433 326.556C584.356 326.154 584.227 325.765 584.049 325.398C583.913 325.106 583.716 324.847 583.472 324.638C583.274 324.468 583.018 324.38 582.758 324.393H582.698L242.894 358.806Z" fill="#E6E6E6"/>
</g>
<g id="e3c0a870-6a35-4470-a43f-0902a465f5fb">
<path id="Path 16" d="M242.894 390.308C242.372 390.394 241.881 390.612 241.467 390.94C241.005 391.303 240.612 391.747 240.309 392.25C239.966 392.809 239.706 393.415 239.537 394.05C239.351 394.734 239.261 395.441 239.27 396.151C239.273 396.818 239.374 397.482 239.57 398.121C239.738 398.675 240.002 399.196 240.35 399.659C240.652 400.063 241.044 400.392 241.495 400.619C241.929 400.831 242.415 400.914 242.895 400.858L582.701 354.175C582.974 354.135 583.227 354.006 583.419 353.807C583.665 353.557 583.865 353.265 584.009 352.946C584.189 352.553 584.324 352.142 584.409 351.719C584.509 351.236 584.562 350.744 584.565 350.252C584.571 349.769 584.526 349.287 584.433 348.814C584.356 348.416 584.227 348.03 584.049 347.666C583.913 347.378 583.716 347.124 583.472 346.922C583.272 346.757 583.016 346.676 582.758 346.696H582.698L242.894 390.308Z" fill="#E6E6E6"/>
</g>
<path id="Path 17" d="M40.4637 328.801L21.0657 328.569C20.7422 328.557 20.4193 328.603 20.1117 328.704C19.8143 328.801 19.5359 328.949 19.2887 329.141C19.0423 329.332 18.8312 329.564 18.6647 329.828C18.4941 330.098 18.3738 330.397 18.3097 330.711C18.2457 331.085 18.2652 331.469 18.3667 331.835C18.4174 332.017 18.4878 332.194 18.5767 332.362C18.7579 332.703 19.0115 333.001 19.3197 333.235C19.7819 333.585 20.3447 333.777 20.9247 333.782L26.7587 333.835C27.0338 333.836 27.3024 333.918 27.5315 334.071C27.7607 334.223 27.9404 334.439 28.0487 334.692C28.1214 334.863 28.1589 335.047 28.1587 335.233V346.677C28.1442 347.308 28.3548 347.925 28.7527 348.416C29.1509 348.908 29.71 349.244 30.3317 349.366C30.8951 349.46 31.474 349.367 31.9797 349.101C32.4854 348.836 32.8901 348.411 33.1317 347.894C33.2908 347.553 33.3734 347.181 33.3737 346.805V335.265C33.3738 335.084 33.4094 334.906 33.4784 334.74C33.5474 334.574 33.6485 334.423 33.7759 334.295C33.9033 334.168 34.0545 334.067 34.2209 333.998C34.3873 333.93 34.5656 333.894 34.7456 333.894L34.7587 333.895L40.3317 333.939C40.9539 333.959 41.563 333.757 42.0506 333.37C42.5383 332.983 42.8728 332.436 42.9947 331.826C43.0558 331.456 43.0364 331.078 42.9378 330.716C42.8393 330.355 42.6638 330.019 42.4235 329.732C42.1831 329.445 41.8836 329.213 41.5454 329.052C41.2071 328.891 40.8382 328.806 40.4637 328.801V328.801Z" fill="white"/>
<path id="Ellipse 2" d="M40.4647 344.219C41.0178 344.218 41.5563 344.396 42.0003 344.726C42.4444 345.056 42.7704 345.52 42.9302 346.049C43.09 346.579 43.075 347.146 42.8874 347.666C42.6998 348.187 42.3496 348.633 41.8887 348.938C41.4278 349.244 40.8807 349.393 40.3283 349.364C39.776 349.335 39.2479 349.128 38.8221 348.775C38.3963 348.422 38.0955 347.941 37.9643 347.404C37.8332 346.866 37.8785 346.301 38.0937 345.792C38.2897 345.325 38.6194 344.926 39.0413 344.646C39.4632 344.367 39.9584 344.218 40.4647 344.219V344.219Z" fill="white"/>
</g>
<g id="girl-board">
<path id="Path 9_2" d="M445 108.726L250.9 82.06C250.003 81.9318 249.088 82.0097 248.225 82.288C247.404 82.5588 246.654 83.0113 246.032 83.612C245.389 84.2333 244.883 84.9828 244.547 85.812C244.18 86.7267 243.994 87.7042 244 88.6899V297.63C243.997 298.629 244.183 299.62 244.547 300.55C244.886 301.415 245.39 302.206 246.031 302.878C246.65 303.525 247.397 304.036 248.224 304.378C249.071 304.724 249.985 304.877 250.899 304.826L445 294.136C445.656 294.093 446.29 293.887 446.845 293.536C447.433 293.165 447.943 292.682 448.345 292.115C448.789 291.495 449.13 290.807 449.355 290.078C449.602 289.286 449.727 288.461 449.726 287.632V115.612C449.725 114.773 449.6 113.938 449.355 113.135C449.127 112.381 448.787 111.667 448.345 111.015C447.942 110.414 447.434 109.891 446.845 109.47C446.298 109.08 445.665 108.825 445 108.726Z" fill="#F9A826"/>
<path id="Path 9_3" opacity="0.2" d="M445 108.726L250.9 82.06C250.003 81.9318 249.088 82.0097 248.225 82.288C247.404 82.5588 246.654 83.0113 246.032 83.612C245.389 84.2333 244.883 84.9828 244.547 85.812C244.18 86.7267 243.994 87.7042 244 88.6899V297.63C243.997 298.629 244.183 299.62 244.547 300.55C244.886 301.415 245.39 302.206 246.031 302.878C246.65 303.525 247.397 304.036 248.224 304.378C249.071 304.724 249.985 304.877 250.899 304.826L445 294.136C445.656 294.093 446.29 293.887 446.845 293.536C447.433 293.165 447.943 292.682 448.345 292.115C448.789 291.495 449.13 290.807 449.355 290.078C449.602 289.286 449.727 288.461 449.726 287.632V115.612C449.725 114.773 449.6 113.938 449.355 113.135C449.127 112.381 448.787 111.667 448.345 111.015C447.942 110.414 447.434 109.891 446.845 109.47C446.298 109.08 445.665 108.825 445 108.726Z" fill="black"/>
<path id="Vector" d="M470.998 169.944C470.908 170.642 470.764 171.332 470.565 172.007L511.001 220.423L526.103 217.821L533.009 240.099L506.722 247.304C504.598 247.886 502.343 247.764 500.295 246.955C498.247 246.146 496.516 244.695 495.363 242.819L457.782 181.68C455.071 181.687 452.421 180.869 450.186 179.335C447.951 177.8 446.236 175.621 445.27 173.087C444.303 170.554 444.131 167.787 444.776 165.153C445.42 162.52 446.852 160.145 448.879 158.344C450.906 156.544 453.434 155.404 456.125 155.075C458.817 154.746 461.544 155.244 463.946 156.504C466.347 157.763 468.308 159.723 469.568 162.124C470.827 164.525 471.326 167.253 470.998 169.944V169.944Z" fill="#FFB6B6"/>
<path id="Path 9_4" d="M453 108.726L258.9 82.06C258.003 81.9318 257.088 82.0097 256.225 82.288C255.404 82.5588 254.654 83.0113 254.032 83.612C253.389 84.2333 252.883 84.9828 252.547 85.812C252.18 86.7267 251.994 87.7042 252 88.6899V297.63C251.997 298.629 252.183 299.62 252.547 300.55C252.886 301.415 253.39 302.206 254.031 302.878C254.65 303.525 255.397 304.036 256.224 304.378C257.071 304.724 257.985 304.877 258.899 304.826L453 294.136C453.656 294.093 454.29 293.887 454.845 293.536C455.433 293.165 455.943 292.682 456.345 292.115C456.789 291.495 457.13 290.807 457.355 290.078C457.602 289.286 457.727 288.461 457.726 287.632V115.612C457.725 114.773 457.6 113.938 457.355 113.135C457.127 112.381 456.787 111.667 456.345 111.015C455.942 110.414 455.434 109.891 454.845 109.47C454.298 109.08 453.665 108.825 453 108.726Z" fill="#F9A826"/>
<path id="Vector_2" d="M512.791 217.724C513.223 217.024 513.801 216.425 514.486 215.969C515.17 215.513 515.945 215.21 516.757 215.081L545.127 210.557C549.14 209.29 553.492 209.667 557.228 211.604C560.964 213.542 563.779 216.881 565.056 220.891C566.333 224.901 565.969 229.254 564.042 232.995C562.115 236.736 558.783 239.561 554.776 240.849L528.857 253.451C528.117 253.81 527.308 254.006 526.486 254.025C525.664 254.044 524.847 253.886 524.091 253.56C523.336 253.235 522.659 252.751 522.108 252.141C521.556 251.531 521.143 250.809 520.895 250.024L512.202 222.454C511.954 221.67 511.878 220.841 511.98 220.024C512.082 219.208 512.359 218.423 512.791 217.724V217.724Z" fill="#3F3D56"/>
<path id="Vector_3" d="M514.373 609.902H502.113L496.281 562.614L514.375 562.615L514.373 609.902Z" fill="#FFB6B6"/>
<path id="Vector_4" d="M517.5 621.786L477.969 621.785V621.285C477.969 617.204 479.59 613.291 482.476 610.405C485.361 607.52 489.275 605.899 493.355 605.898H493.356L517.5 605.899L517.5 621.786Z" fill="#2F2E41"/>
<path id="Vector_5" d="M642.373 609.902H630.113L624.281 562.614L642.375 562.615L642.373 609.902Z" fill="#FFB6B6"/>
<path id="Vector_6" d="M645.5 621.786L605.969 621.785V621.285C605.969 617.204 607.59 613.291 610.476 610.405C613.361 607.52 617.275 605.899 621.355 605.898H621.356L645.5 605.899L645.5 621.786Z" fill="#2F2E41"/>
<path id="Vector_7" d="M519.16 321.853L572.285 306.501C591.638 320.228 605.001 347.742 600.673 383.341C593.699 440.709 634.072 514.471 651.484 589.21L621.376 590.156L555.446 432.376L516.793 593.441L489.898 594.286L507.884 372.517L519.16 321.853Z" fill="#2F2E41"/>
<path id="Vector_8" d="M542.816 182.34C557.994 182.34 570.298 170.036 570.298 154.858C570.298 139.68 557.994 127.376 542.816 127.376C527.638 127.376 515.334 139.68 515.334 154.858C515.334 170.036 527.638 182.34 542.816 182.34Z" fill="#FFB6B6"/>
<path id="Vector_9" d="M514.853 277.061C508.779 266.398 505.778 253.448 511.065 242.374C512.396 239.585 516.026 236.95 517.926 234.513L539.16 202.853L563.136 198.996C583.885 216.399 566.16 275.853 583.16 314.853L512.16 352.853C517.235 333.472 524.084 293.265 514.853 277.061Z" fill="#3F3D56"/>
<path id="Vector_10" d="M515.16 143.853C515.16 143.853 517.021 140.407 528.16 144.853C532.058 146.41 533.887 146.052 534.14 149.439C535.043 162.184 539.705 174.376 547.536 184.473L547.621 184.583L553.19 179.5L560.351 185.218L590.585 185.853C590.585 185.853 595.359 162.348 579.446 135.667C563.533 108.986 530.913 123.597 530.913 123.597C508.635 124.868 515.16 143.853 515.16 143.853Z" fill="#2F2E41"/>
<path id="Vector_11" d="M452.167 275.767C452.695 276.232 453.186 276.738 453.635 277.28L516.388 270.866L522.683 256.894L545.011 263.639L536.27 289.456C535.564 291.542 534.201 293.342 532.384 294.587C530.568 295.832 528.396 296.454 526.196 296.359L454.496 293.287C452.985 295.539 450.825 297.276 448.302 298.27C445.779 299.263 443.013 299.465 440.373 298.848C437.733 298.231 435.343 296.825 433.521 294.817C431.7 292.809 430.532 290.294 430.175 287.606C429.818 284.918 430.287 282.185 431.521 279.771C432.755 277.356 434.694 275.375 437.082 274.09C439.469 272.804 442.191 272.276 444.886 272.576C447.581 272.876 450.12 273.989 452.167 275.767V275.767Z" fill="#FFB6B6"/>
<path id="Vector_12" d="M515.153 267.872C514.815 267.122 514.642 266.308 514.647 265.485C514.652 264.663 514.835 263.851 515.182 263.106L527.31 237.063C528.506 233.028 531.254 229.632 534.95 227.62C538.647 225.608 542.99 225.144 547.028 226.329C551.067 227.515 554.47 230.254 556.492 233.945C558.514 237.636 558.989 241.978 557.814 246.019L553.752 274.552C553.636 275.367 553.346 276.147 552.901 276.839C552.457 277.531 551.868 278.119 551.176 278.563C550.484 279.007 549.704 279.297 548.889 279.412C548.075 279.528 547.245 279.467 546.457 279.233L518.743 271.007C517.954 270.774 517.225 270.373 516.606 269.831C515.986 269.29 515.491 268.622 515.153 267.872V267.872Z" fill="#3F3D56"/>
</g>
</g>
</svg>
