<svg width="1440" height="320" viewBox="0 0 1440 320" fill="none" xmlns="http://www.w3.org/2000/svg">
<g clip-path="url(#clip0)">
<path d="M-10.5 290L111 103.3C183 39.2999 209.5 16.2 305.5 21.5C427.5 62.5001 503 212 599 223C715 236.292 786.883 251.076 890.5 201.5C986.5 155.569 1069 6 1141.5 6C1207 6 1283 78.3 1311.5 124.5L1430 290C1382 290 1237.5 290 1141.5 290C1045.5 290 949.5 290 853.5 290C757.5 290 661.5 290 565.5 290C469.5 290 373.5 290 277.5 290C181.5 290 85.5 290 37.5 290H-10.5Z" fill="white"/>
</g>
<defs>
<clipPath id="clip0">
<rect width="1440" height="320" fill="white"/>
</clipPath>
</defs>
</svg>
